<svg width="100" height="100" viewBox="0 0 100 100" fill="none" xmlns="http://www.w3.org/2000/svg">
<rect width="100" height="100" rx="20" fill="#D7EF43"/>
<path d="M24.1876 41.694V55.906C24.1876 56.0673 24.1289 56.2067 24.0116 56.324C23.8942 56.4413 23.7549 56.5 23.5936 56.5H19.2816C19.1202 56.5 18.9809 56.4413 18.8636 56.324C18.7462 56.2067 18.6876 56.0673 18.6876 55.906V47.018L16.2236 48.91C16.1062 48.998 15.9742 49.042 15.8276 49.042C15.6956 49.042 15.5489 48.9393 15.3876 48.734L13.4516 46.226C13.3929 46.1233 13.3636 46.028 13.3636 45.94C13.3636 45.676 13.4589 45.4853 13.6496 45.368L18.9516 41.254C19.0982 41.1513 19.2596 41.1 19.4356 41.1H23.5936C23.7549 41.1 23.8942 41.1587 24.0116 41.276C24.1289 41.3933 24.1876 41.5327 24.1876 41.694ZM32.3171 46.556V50.978C32.3171 51.4033 32.4197 51.748 32.6251 52.012C32.8304 52.276 33.1311 52.408 33.5271 52.408C33.9231 52.408 34.2237 52.276 34.4291 52.012C34.6344 51.748 34.7371 51.4033 34.7371 50.978V46.556C34.7371 45.6027 34.3337 45.126 33.5271 45.126C32.7204 45.126 32.3171 45.6027 32.3171 46.556ZM40.4571 46.776V50.802C40.4571 52.694 39.8337 54.1533 38.5871 55.18C37.3551 56.2067 35.6684 56.72 33.5271 56.72C31.3857 56.72 29.6917 56.2067 28.4451 55.18C27.2131 54.1387 26.5971 52.6647 26.5971 50.758V46.82C26.5971 44.928 27.2351 43.4687 28.5111 42.442C29.8017 41.4007 31.4737 40.88 33.5271 40.88C35.5804 40.88 37.2451 41.4007 38.5211 42.442C39.8117 43.4687 40.4571 44.9133 40.4571 46.776ZM48.3874 46.556V50.978C48.3874 51.4033 48.49 51.748 48.6954 52.012C48.9007 52.276 49.2014 52.408 49.5974 52.408C49.9934 52.408 50.294 52.276 50.4994 52.012C50.7047 51.748 50.8074 51.4033 50.8074 50.978V46.556C50.8074 45.6027 50.404 45.126 49.5974 45.126C48.7907 45.126 48.3874 45.6027 48.3874 46.556ZM56.5274 46.776V50.802C56.5274 52.694 55.904 54.1533 54.6574 55.18C53.4254 56.2067 51.7387 56.72 49.5974 56.72C47.456 56.72 45.762 56.2067 44.5154 55.18C43.2834 54.1387 42.6674 52.6647 42.6674 50.758V46.82C42.6674 44.928 43.3054 43.4687 44.5814 42.442C45.872 41.4007 47.544 40.88 49.5974 40.88C51.6507 40.88 53.3154 41.4007 54.5914 42.442C55.882 43.4687 56.5274 44.9133 56.5274 46.776ZM64.4577 46.556V50.978C64.4577 51.4033 64.5604 51.748 64.7657 52.012C64.971 52.276 65.2717 52.408 65.6677 52.408C66.0637 52.408 66.3644 52.276 66.5697 52.012C66.775 51.748 66.8777 51.4033 66.8777 50.978V46.556C66.8777 45.6027 66.4744 45.126 65.6677 45.126C64.861 45.126 64.4577 45.6027 64.4577 46.556ZM72.5977 46.776V50.802C72.5977 52.694 71.9744 54.1533 70.7277 55.18C69.4957 56.2067 67.809 56.72 65.6677 56.72C63.5264 56.72 61.8324 56.2067 60.5857 55.18C59.3537 54.1387 58.7377 52.6647 58.7377 50.758V46.82C58.7377 44.928 59.3757 43.4687 60.6517 42.442C61.9424 41.4007 63.6144 40.88 65.6677 40.88C67.721 40.88 69.3857 41.4007 70.6617 42.442C71.9524 43.4687 72.5977 44.9133 72.5977 46.776ZM78.372 54.322V50.78H74.962C74.8007 50.78 74.6613 50.7213 74.544 50.604C74.4267 50.4867 74.368 50.3473 74.368 50.186V47.788C74.368 47.6267 74.4267 47.4873 74.544 47.37C74.6613 47.2527 74.8007 47.194 74.962 47.194H78.372V43.762C78.372 43.6007 78.4307 43.4613 78.548 43.344C78.6653 43.2267 78.8047 43.168 78.966 43.168H81.65C81.8113 43.168 81.9507 43.2267 82.068 43.344C82.1853 43.4613 82.244 43.6007 82.244 43.762V47.194H85.61C85.7713 47.194 85.9107 47.2527 86.028 47.37C86.1453 47.4873 86.204 47.6267 86.204 47.788V50.186C86.204 50.3473 86.1453 50.4867 86.028 50.604C85.9107 50.7213 85.7713 50.78 85.61 50.78H82.244V54.322C82.244 54.4833 82.1853 54.6227 82.068 54.74C81.9507 54.8573 81.8113 54.916 81.65 54.916H78.966C78.8047 54.916 78.6653 54.8573 78.548 54.74C78.4307 54.6227 78.372 54.4833 78.372 54.322Z" fill="black"/>
</svg>
