<svg width="100" height="100" viewBox="0 0 100 100" fill="none" xmlns="http://www.w3.org/2000/svg">
<rect width="100" height="100" rx="20" fill="#D7EF43"/>
<path d="M26.046 41.694V55.906C26.046 56.0673 25.9873 56.2067 25.87 56.324C25.7526 56.4413 25.6133 56.5 25.452 56.5H21.14C20.9786 56.5 20.8393 56.4413 20.722 56.324C20.6046 56.2067 20.546 56.0673 20.546 55.906V47.018L18.082 48.91C17.9646 48.998 17.8326 49.042 17.686 49.042C17.554 49.042 17.4073 48.9393 17.246 48.734L15.31 46.226C15.2513 46.1233 15.222 46.028 15.222 45.94C15.222 45.676 15.3173 45.4853 15.508 45.368L20.81 41.254C20.9566 41.1513 21.118 41.1 21.294 41.1H25.452C25.6133 41.1 25.7526 41.1587 25.87 41.276C25.9873 41.3933 26.046 41.5327 26.046 41.694ZM38.3995 41.694V55.906C38.3995 56.0673 38.3408 56.2067 38.2235 56.324C38.1061 56.4413 37.9668 56.5 37.8055 56.5H33.4935C33.3321 56.5 33.1928 56.4413 33.0755 56.324C32.9581 56.2067 32.8995 56.0673 32.8995 55.906V47.018L30.4355 48.91C30.3181 48.998 30.1861 49.042 30.0395 49.042C29.9075 49.042 29.7608 48.9393 29.5995 48.734L27.6635 46.226C27.6048 46.1233 27.5755 46.028 27.5755 45.94C27.5755 45.676 27.6708 45.4853 27.8615 45.368L33.1635 41.254C33.3101 41.1513 33.4715 41.1 33.6475 41.1H37.8055C37.9668 41.1 38.1061 41.1587 38.2235 41.276C38.3408 41.3933 38.3995 41.5327 38.3995 41.694ZM46.529 46.556V50.978C46.529 51.4033 46.6317 51.748 46.837 52.012C47.0423 52.276 47.343 52.408 47.739 52.408C48.135 52.408 48.4357 52.276 48.641 52.012C48.8463 51.748 48.949 51.4033 48.949 50.978V46.556C48.949 45.6027 48.5457 45.126 47.739 45.126C46.9323 45.126 46.529 45.6027 46.529 46.556ZM54.669 46.776V50.802C54.669 52.694 54.0457 54.1533 52.799 55.18C51.567 56.2067 49.8803 56.72 47.739 56.72C45.5977 56.72 43.9037 56.2067 42.657 55.18C41.425 54.1387 40.809 52.6647 40.809 50.758V46.82C40.809 44.928 41.447 43.4687 42.723 42.442C44.0137 41.4007 45.6857 40.88 47.739 40.88C49.7923 40.88 51.457 41.4007 52.733 42.442C54.0237 43.4687 54.669 44.9133 54.669 46.776ZM62.5993 46.556V50.978C62.5993 51.4033 62.702 51.748 62.9073 52.012C63.1126 52.276 63.4133 52.408 63.8093 52.408C64.2053 52.408 64.506 52.276 64.7113 52.012C64.9166 51.748 65.0193 51.4033 65.0193 50.978V46.556C65.0193 45.6027 64.616 45.126 63.8093 45.126C63.0026 45.126 62.5993 45.6027 62.5993 46.556ZM70.7393 46.776V50.802C70.7393 52.694 70.116 54.1533 68.8693 55.18C67.6373 56.2067 65.9506 56.72 63.8093 56.72C61.668 56.72 59.974 56.2067 58.7273 55.18C57.4953 54.1387 56.8793 52.6647 56.8793 50.758V46.82C56.8793 44.928 57.5173 43.4687 58.7933 42.442C60.084 41.4007 61.756 40.88 63.8093 40.88C65.8626 40.88 67.5273 41.4007 68.8033 42.442C70.094 43.4687 70.7393 44.9133 70.7393 46.776ZM76.5136 54.322V50.78H73.1036C72.9423 50.78 72.8029 50.7213 72.6856 50.604C72.5683 50.4867 72.5096 50.3473 72.5096 50.186V47.788C72.5096 47.6267 72.5683 47.4873 72.6856 47.37C72.8029 47.2527 72.9423 47.194 73.1036 47.194H76.5136V43.762C76.5136 43.6007 76.5723 43.4613 76.6896 43.344C76.8069 43.2267 76.9463 43.168 77.1076 43.168H79.7916C79.9529 43.168 80.0923 43.2267 80.2096 43.344C80.3269 43.4613 80.3856 43.6007 80.3856 43.762V47.194H83.7516C83.9129 47.194 84.0523 47.2527 84.1696 47.37C84.2869 47.4873 84.3456 47.6267 84.3456 47.788V50.186C84.3456 50.3473 84.2869 50.4867 84.1696 50.604C84.0523 50.7213 83.9129 50.78 83.7516 50.78H80.3856V54.322C80.3856 54.4833 80.3269 54.6227 80.2096 54.74C80.0923 54.8573 79.9529 54.916 79.7916 54.916H77.1076C76.9463 54.916 76.8069 54.8573 76.6896 54.74C76.5723 54.6227 76.5136 54.4833 76.5136 54.322Z" fill="black"/>
</svg>
