<svg width="100" height="100" viewBox="0 0 100 100" fill="none" xmlns="http://www.w3.org/2000/svg">
<rect width="100" height="100" rx="20" fill="#D7EF43"/>
<path d="M25.4344 51.748C25.6398 52.012 25.8304 52.2027 26.0064 52.32C26.1824 52.4227 26.4464 52.474 26.7984 52.474C27.1651 52.474 27.4731 52.3567 27.7224 52.122C27.9864 51.8727 28.1184 51.55 28.1184 51.154C28.1184 50.758 27.9938 50.428 27.7444 50.164C27.5098 49.9 27.2018 49.768 26.8204 49.768C26.4391 49.768 26.1164 49.856 25.8524 50.032C25.6031 50.208 25.4418 50.296 25.3684 50.296H20.9904C20.8584 50.296 20.7411 50.252 20.6384 50.164C20.5504 50.0613 20.5064 49.944 20.5064 49.812V49.702L21.3864 41.848C21.4451 41.3493 21.7311 41.1 22.2444 41.1H32.0784C32.2398 41.1 32.3791 41.1587 32.4964 41.276C32.6138 41.3933 32.6724 41.5327 32.6724 41.694V44.796C32.6724 44.9573 32.6138 45.0967 32.4964 45.214C32.3791 45.3313 32.2398 45.39 32.0784 45.39H25.6544L25.4784 46.952C26.2118 46.4533 27.2311 46.204 28.5364 46.204C29.8564 46.204 31.0591 46.6953 32.1444 47.678C33.2444 48.646 33.7944 49.878 33.7944 51.374C33.7944 52.8553 33.1784 54.124 31.9464 55.18C30.7144 56.236 28.9838 56.764 26.7544 56.764C24.5251 56.764 22.7871 56.2947 21.5404 55.356C20.3084 54.4027 19.6924 53.2293 19.6924 51.836C19.6924 51.704 19.7364 51.594 19.8244 51.506C19.9271 51.4033 20.0444 51.352 20.1764 51.352H24.6204C24.9578 51.352 25.2291 51.484 25.4344 51.748ZM48.5559 49.57H50.4699C50.6459 49.57 50.7926 49.6287 50.9099 49.746C51.0272 49.8633 51.0859 50.0027 51.0859 50.164V53.442C51.0859 53.6033 51.0272 53.7427 50.9099 53.86C50.7926 53.9773 50.6532 54.036 50.4919 54.036H48.5559V55.906C48.5559 56.0673 48.4972 56.2067 48.3799 56.324C48.2626 56.4413 48.1232 56.5 47.9619 56.5H43.8699C43.7086 56.5 43.5692 56.4413 43.4519 56.324C43.3346 56.2067 43.2759 56.0673 43.2759 55.906V54.036H36.6979C36.5366 54.036 36.3972 53.9773 36.2799 53.86C36.1626 53.7427 36.1039 53.6033 36.1039 53.442V50.296C36.1039 50.0467 36.1846 49.8193 36.3459 49.614L42.5719 41.474C42.7772 41.2247 43.0486 41.1 43.3859 41.1H47.9619C48.1232 41.1 48.2626 41.1587 48.3799 41.276C48.4972 41.3933 48.5559 41.5327 48.5559 41.694V49.57ZM43.4299 49.812V46.644L41.1199 49.812H43.4299ZM59.1188 46.556V50.978C59.1188 51.4033 59.2215 51.748 59.4268 52.012C59.6322 52.276 59.9328 52.408 60.3288 52.408C60.7248 52.408 61.0255 52.276 61.2308 52.012C61.4362 51.748 61.5388 51.4033 61.5388 50.978V46.556C61.5388 45.6027 61.1355 45.126 60.3288 45.126C59.5222 45.126 59.1188 45.6027 59.1188 46.556ZM67.2588 46.776V50.802C67.2588 52.694 66.6355 54.1533 65.3888 55.18C64.1568 56.2067 62.4702 56.72 60.3288 56.72C58.1875 56.72 56.4935 56.2067 55.2468 55.18C54.0148 54.1387 53.3988 52.6647 53.3988 50.758V46.82C53.3988 44.928 54.0368 43.4687 55.3128 42.442C56.6035 41.4007 58.2755 40.88 60.3288 40.88C62.3822 40.88 64.0468 41.4007 65.3228 42.442C66.6135 43.4687 67.2588 44.9133 67.2588 46.776ZM73.0331 54.322V50.78H69.6231C69.4618 50.78 69.3225 50.7213 69.2051 50.604C69.0878 50.4867 69.0291 50.3473 69.0291 50.186V47.788C69.0291 47.6267 69.0878 47.4873 69.2051 47.37C69.3225 47.2527 69.4618 47.194 69.6231 47.194H73.0331V43.762C73.0331 43.6007 73.0918 43.4613 73.2091 43.344C73.3265 43.2267 73.4658 43.168 73.6271 43.168H76.3111C76.4725 43.168 76.6118 43.2267 76.7291 43.344C76.8465 43.4613 76.9051 43.6007 76.9051 43.762V47.194H80.2711C80.4325 47.194 80.5718 47.2527 80.6891 47.37C80.8065 47.4873 80.8651 47.6267 80.8651 47.788V50.186C80.8651 50.3473 80.8065 50.4867 80.6891 50.604C80.5718 50.7213 80.4325 50.78 80.2711 50.78H76.9051V54.322C76.9051 54.4833 76.8465 54.6227 76.7291 54.74C76.6118 54.8573 76.4725 54.916 76.3111 54.916H73.6271C73.4658 54.916 73.3265 54.8573 73.2091 54.74C73.0918 54.6227 73.0331 54.4833 73.0331 54.322Z" fill="black"/>
</svg>
