<svg width="235" height="42" viewBox="0 0 235 42" fill="none" xmlns="http://www.w3.org/2000/svg">
<path d="M67.1916 7.58902C68.293 7.58902 69.2543 7.76635 70.0756 8.12102C70.897 8.45702 71.5783 8.97035 72.1196 9.66102C72.661 10.333 73.0623 11.173 73.3236 12.181C73.6036 13.189 73.7436 14.365 73.7436 15.709C73.7436 16.5677 73.865 17.2677 74.1076 17.809C74.369 18.3317 74.761 18.7517 75.2836 19.069L75.5636 19.181C76.049 19.461 76.2916 19.825 76.2916 20.273V21.085C76.2916 21.533 76.049 21.897 75.5636 22.177L75.2836 22.317C74.7423 22.6157 74.3503 23.0357 74.1076 23.577C73.865 24.0997 73.7436 24.7997 73.7436 25.677C73.7436 27.0023 73.6036 28.169 73.3236 29.177C73.0623 30.1663 72.661 30.997 72.1196 31.669C71.5783 32.3597 70.897 32.873 70.0756 33.209C69.273 33.5637 68.321 33.7504 67.2196 33.769H67.0516C66.8836 33.769 66.7343 33.7037 66.6036 33.573C66.4916 33.461 66.4356 33.321 66.4356 33.153V31.361C66.4356 31.1744 66.4916 31.025 66.6036 30.913C66.7156 30.801 66.8556 30.745 67.0236 30.745H67.1356C67.9943 30.689 68.6476 30.4743 69.0956 30.101C69.5623 29.7277 69.889 29.1397 70.0756 28.337C70.2623 27.5343 70.3556 26.489 70.3556 25.201C70.3556 24.0437 70.533 23.0823 70.8876 22.317C71.261 21.5517 71.7743 21.0103 72.4276 20.693C71.9983 20.4503 71.625 20.1237 71.3076 19.713C71.009 19.2837 70.7756 18.7703 70.6076 18.173C70.4396 17.5757 70.3556 16.913 70.3556 16.185C70.3556 14.8783 70.2623 13.8237 70.0756 13.021C69.889 12.2183 69.5623 11.6303 69.0956 11.257C68.6476 10.865 68.0036 10.6503 67.1636 10.613H67.0236C66.8556 10.613 66.7156 10.557 66.6036 10.445C66.4916 10.333 66.4356 10.1837 66.4356 9.99701V8.20502C66.4356 8.01835 66.4916 7.86902 66.6036 7.75702C66.7343 7.64502 66.8836 7.58902 67.0516 7.58902H67.1916Z" fill="white"/>
<path d="M13.5584 7.58902C12.457 7.58902 11.4957 7.76635 10.6744 8.12102C9.85302 8.45702 9.17169 8.97035 8.63036 9.66102C8.08902 10.333 7.68769 11.173 7.42635 12.181C7.14636 13.189 7.00636 14.365 7.00636 15.709C7.00636 16.5677 6.88502 17.2677 6.64235 17.809C6.38102 18.3317 5.98902 18.7517 5.46636 19.069L5.18636 19.181C4.70102 19.461 4.45836 19.825 4.45836 20.273V21.085C4.45836 21.533 4.70102 21.897 5.18636 22.177L5.46636 22.317C6.00769 22.6157 6.39969 23.0357 6.64235 23.577C6.88502 24.0997 7.00636 24.7997 7.00636 25.677C7.00636 27.0023 7.14636 28.169 7.42635 29.177C7.68769 30.1663 8.08902 30.997 8.63036 31.669C9.17169 32.3597 9.85302 32.873 10.6744 33.209C11.477 33.5637 12.429 33.7504 13.5304 33.769H13.6984C13.8664 33.769 14.0157 33.7037 14.1464 33.573C14.2584 33.461 14.3144 33.321 14.3144 33.153V31.361C14.3144 31.1744 14.2584 31.025 14.1464 30.913C14.0344 30.801 13.8944 30.745 13.7264 30.745H13.6144C12.7557 30.689 12.1024 30.4743 11.6544 30.101C11.1877 29.7277 10.861 29.1397 10.6744 28.337C10.4877 27.5343 10.3944 26.489 10.3944 25.201C10.3944 24.0437 10.217 23.0823 9.86236 22.317C9.48902 21.5517 8.97569 21.0103 8.32236 20.693C8.75169 20.4503 9.12502 20.1237 9.44236 19.713C9.74102 19.2837 9.97436 18.7703 10.1424 18.173C10.3104 17.5757 10.3944 16.913 10.3944 16.185C10.3944 14.8783 10.4877 13.8237 10.6744 13.021C10.861 12.2183 11.1877 11.6303 11.6544 11.257C12.1024 10.865 12.7464 10.6503 13.5864 10.613H13.7264C13.8944 10.613 14.0344 10.557 14.1464 10.445C14.2584 10.333 14.3144 10.1837 14.3144 9.99701V8.20502C14.3144 8.01835 14.2584 7.86902 14.1464 7.75702C14.0157 7.64502 13.8664 7.58902 13.6984 7.58902H13.5584Z" fill="white"/>
<path d="M30.305 13.9889L22.0791 23.8626L17.4538 14.0289L30.305 13.9889Z" stroke="#D7EF43" stroke-width="4"/>
<path d="M50.9928 14.1829L63.8441 14.2219L59.2196 24.0559L50.9928 14.1829Z" stroke="#D7EF43" stroke-width="4"/>
<path d="M36.7551 19.281L37.1467 32.1263L27.1632 27.8338L36.7551 19.281Z" stroke="#D7EF43" stroke-width="4"/>
<path d="M44.3224 19.5744L54.2616 27.7209L44.4653 32.4248L44.3224 19.5744Z" stroke="#D7EF43" stroke-width="4"/>
<path d="M102.613 23.85H110.923C111.143 23.85 111.333 23.93 111.493 24.09C111.653 24.25 111.733 24.44 111.733 24.66V29.19C111.733 29.41 111.653 29.6 111.493 29.76C111.333 29.92 111.143 30 110.923 30H95.803C95.583 30 95.393 29.92 95.233 29.76C95.073 29.6 94.993 29.41 94.993 29.19V9.81C94.993 9.59 95.073 9.4 95.233 9.24C95.393 9.08 95.583 9 95.803 9H101.803C102.023 9 102.213 9.08 102.373 9.24C102.533 9.4 102.613 9.59 102.613 9.81V23.85ZM121.376 30H115.256C115.036 30 114.846 29.92 114.686 29.76C114.526 29.6 114.446 29.41 114.446 29.19V9.81C114.446 9.59 114.526 9.4 114.686 9.24C114.846 9.08 115.036 9 115.256 9H121.376C121.596 9 121.786 9.08 121.946 9.24C122.106 9.4 122.186 9.59 122.186 9.81V29.19C122.186 29.41 122.106 29.6 121.946 29.76C121.786 29.92 121.596 30 121.376 30ZM142.907 9H147.647C147.867 9 148.057 9.08 148.217 9.24C148.377 9.4 148.457 9.59 148.457 9.81V29.19C148.457 29.41 148.377 29.6 148.217 29.76C148.057 29.92 147.867 30 147.647 30H142.217C141.997 30 141.807 29.92 141.647 29.76C141.487 29.6 141.407 29.41 141.407 29.19V20.97L139.427 24.21C139.107 24.71 138.737 24.96 138.317 24.96H136.217C135.797 24.96 135.427 24.71 135.107 24.21L133.127 20.97V29.19C133.127 29.41 133.047 29.6 132.887 29.76C132.727 29.92 132.537 30 132.317 30H126.887C126.667 30 126.477 29.92 126.317 29.76C126.157 29.6 126.077 29.41 126.077 29.19V9.81C126.077 9.59 126.157 9.4 126.317 9.24C126.477 9.08 126.667 9 126.887 9H131.627C132.187 9 132.617 9.27 132.917 9.81L137.267 17.01L141.617 9.81C141.917 9.27 142.347 9 142.907 9ZM159.556 24.15H168.796C169.016 24.15 169.206 24.23 169.366 24.39C169.526 24.55 169.606 24.74 169.606 24.96V29.19C169.606 29.41 169.526 29.6 169.366 29.76C169.206 29.92 169.016 30 168.796 30H153.166C152.946 30 152.756 29.92 152.596 29.76C152.436 29.6 152.356 29.41 152.356 29.19V9.81C152.356 9.59 152.436 9.4 152.596 9.24C152.756 9.08 152.946 9 153.166 9H168.556C168.776 9 168.966 9.08 169.126 9.24C169.286 9.4 169.366 9.59 169.366 9.81V14.04C169.366 14.26 169.286 14.45 169.126 14.61C168.966 14.77 168.776 14.85 168.556 14.85H159.556V16.74H167.896C168.116 16.74 168.306 16.82 168.466 16.98C168.626 17.14 168.706 17.33 168.706 17.55V21.45C168.706 21.67 168.626 21.86 168.466 22.02C168.306 22.18 168.116 22.26 167.896 22.26H159.556V24.15Z" fill="#D7EF43"/>
<path d="M185.876 9H191.306C191.526 9 191.716 9.08 191.876 9.24C192.036 9.4 192.116 9.59 192.116 9.81V29.19C192.116 29.41 192.036 29.6 191.876 29.76C191.716 29.92 191.526 30 191.306 30H186.566C186.046 30 185.636 29.77 185.336 29.31L180.266 21.66V29.19C180.266 29.41 180.186 29.6 180.026 29.76C179.866 29.92 179.676 30 179.456 30H174.026C173.806 30 173.616 29.92 173.456 29.76C173.296 29.6 173.216 29.41 173.216 29.19V9.81C173.216 9.59 173.296 9.4 173.456 9.24C173.616 9.08 173.806 9 174.026 9H178.766C179.326 9 179.736 9.23 179.996 9.69L185.066 18V9.81C185.066 9.59 185.146 9.4 185.306 9.24C185.466 9.08 185.656 9 185.876 9ZM196.819 9H211.939C212.159 9 212.349 9.08 212.509 9.24C212.669 9.4 212.749 9.59 212.749 9.81V14.37C212.749 14.59 212.669 14.78 212.509 14.94C212.349 15.1 212.159 15.18 211.939 15.18H203.359V17.4H211.339C211.559 17.4 211.749 17.48 211.909 17.64C212.069 17.8 212.149 17.99 212.149 18.21V22.74C212.149 22.96 212.069 23.15 211.909 23.31C211.749 23.47 211.559 23.55 211.339 23.55H203.359V29.19C203.359 29.41 203.279 29.6 203.119 29.76C202.959 29.92 202.769 30 202.549 30H196.819C196.599 30 196.409 29.92 196.249 29.76C196.089 29.6 196.009 29.41 196.009 29.19V9.81C196.009 9.59 196.089 9.4 196.249 9.24C196.409 9.08 196.599 9 196.819 9ZM215.661 9H233.241C233.461 9 233.651 9.08 233.811 9.24C233.971 9.4 234.051 9.59 234.051 9.81V14.64C234.051 14.86 233.971 15.05 233.811 15.21C233.651 15.37 233.461 15.45 233.241 15.45H228.261V29.19C228.261 29.41 228.181 29.6 228.021 29.76C227.861 29.92 227.671 30 227.451 30H221.451C221.231 30 221.041 29.92 220.881 29.76C220.721 29.6 220.641 29.41 220.641 29.19V15.45H215.661C215.441 15.45 215.251 15.37 215.091 15.21C214.931 15.05 214.851 14.86 214.851 14.64V9.81C214.851 9.59 214.931 9.4 215.091 9.24C215.251 9.08 215.441 9 215.661 9Z" fill="white"/>
</svg>
