<svg width="20" height="21" viewBox="0 0 20 21" fill="none" xmlns="http://www.w3.org/2000/svg">
<path fill-rule="evenodd" clip-rule="evenodd" d="M1.875 4.875C1.875 4.52982 2.15482 4.25 2.5 4.25H17.5C17.8452 4.25 18.125 4.52982 18.125 4.875V15.5C18.125 15.8315 17.9933 16.1495 17.7589 16.3839C17.5245 16.6183 17.2065 16.75 16.875 16.75H3.125C2.79348 16.75 2.47554 16.6183 2.24112 16.3839C2.0067 16.1495 1.875 15.8315 1.875 15.5V4.875ZM3.125 5.5V15.5H16.875V5.5H3.125Z" fill="black"/>
<path fill-rule="evenodd" clip-rule="evenodd" d="M2.03928 4.45268C2.27253 4.19823 2.66788 4.18104 2.92233 4.41428L10 10.9021L17.0777 4.41428C17.3321 4.18104 17.7275 4.19823 17.9607 4.45268C18.194 4.70713 18.1768 5.10248 17.9223 5.33573L10.4223 12.2107C10.1834 12.4298 9.81663 12.4298 9.57768 12.2107L2.07768 5.33573C1.82323 5.10248 1.80604 4.70713 2.03928 4.45268Z" fill="black"/>
</svg>
