<svg width="20" height="17" viewBox="0 0 20 17" fill="none" xmlns="http://www.w3.org/2000/svg">
<path d="M20 2.40716C19.2504 2.73454 18.4565 2.9492 17.644 3.04416C18.4968 2.5434 19.138 1.74927 19.448 0.810164C18.64 1.28049 17.7587 1.61177 16.841 1.79016C16.4545 1.38537 15.9897 1.06355 15.4748 0.844342C14.9598 0.625133 14.4056 0.513129 13.846 0.515164C11.58 0.515164 9.743 2.32516 9.743 4.55516C9.743 4.87116 9.779 5.18016 9.849 5.47516C8.22358 5.39786 6.63212 4.98257 5.17617 4.2558C3.72022 3.52903 2.43176 2.50674 1.393 1.25416C1.02883 1.86857 0.837415 2.56994 0.839 3.28416C0.839697 3.95213 1.00683 4.60939 1.32529 5.19656C1.64375 5.78372 2.1035 6.28228 2.663 6.64716C2.01248 6.62616 1.37602 6.45249 0.805 6.14016V6.19016C0.805 8.14816 2.22 9.78116 4.095 10.1532C3.74261 10.2467 3.37958 10.2941 3.015 10.2942C2.75 10.2942 2.493 10.2692 2.242 10.2192C2.51008 11.0271 3.02311 11.7315 3.70982 12.2345C4.39653 12.7375 5.22284 13.0142 6.074 13.0262C4.61407 14.1507 2.82182 14.7582 0.979 14.7532C0.647 14.7532 0.321 14.7332 0 14.6972C1.88125 15.8879 4.06259 16.5184 6.289 16.5152C13.836 16.5152 17.962 10.3582 17.962 5.01916L17.948 4.49616C18.7529 3.92983 19.4481 3.22201 20 2.40716Z" fill="white"/>
</svg>
